<svg width="32" height="32" viewBox="0 0 32 32" fill="none" xmlns="http://www.w3.org/2000/svg">
<path d="M21.5865 2.66663H10.4132C5.55984 2.66663 2.6665 5.55996 2.6665 10.4133V21.5866C2.6665 26.44 5.55984 29.3333 10.4132 29.3333H21.5865C26.4398 29.3333 29.3332 26.44 29.3332 21.5866V10.4133C29.3332 5.55996 26.4398 2.66663 21.5865 2.66663ZM13.2932 19.8666L10.2932 22.8666C10.0932 23.0666 9.83984 23.16 9.5865 23.16C9.33317 23.16 9.0665 23.0666 8.87984 22.8666L7.87984 21.8666C7.47984 21.48 7.47984 20.84 7.87984 20.4533C8.2665 20.0666 8.89317 20.0666 9.29317 20.4533L9.5865 20.7466L11.8798 18.4533C12.2665 18.0666 12.8932 18.0666 13.2932 18.4533C13.6798 18.84 13.6798 19.48 13.2932 19.8666ZM13.2932 10.5333L10.2932 13.5333C10.0932 13.7333 9.83984 13.8266 9.5865 13.8266C9.33317 13.8266 9.0665 13.7333 8.87984 13.5333L7.87984 12.5333C7.47984 12.1466 7.47984 11.5066 7.87984 11.12C8.2665 10.7333 8.89317 10.7333 9.29317 11.12L9.5865 11.4133L11.8798 9.11996C12.2665 8.73329 12.8932 8.73329 13.2932 9.11996C13.6798 9.50663 13.6798 10.1466 13.2932 10.5333ZM23.4132 22.16H16.4132C15.8665 22.16 15.4132 21.7066 15.4132 21.16C15.4132 20.6133 15.8665 20.16 16.4132 20.16H23.4132C23.9732 20.16 24.4132 20.6133 24.4132 21.16C24.4132 21.7066 23.9732 22.16 23.4132 22.16ZM23.4132 12.8266H16.4132C15.8665 12.8266 15.4132 12.3733 15.4132 11.8266C15.4132 11.28 15.8665 10.8266 16.4132 10.8266H23.4132C23.9732 10.8266 24.4132 11.28 24.4132 11.8266C24.4132 12.3733 23.9732 12.8266 23.4132 12.8266Z" fill="#FF353C"/>
</svg>
