<svg width="32" height="32" viewBox="0 0 32 32" fill="none" xmlns="http://www.w3.org/2000/svg">
<path d="M26.0136 7.79996L18.0936 3.22663C16.8002 2.47996 15.2002 2.47996 13.8936 3.22663L5.98689 7.79996C4.69355 8.54663 3.89355 9.93329 3.89355 11.44V20.56C3.89355 22.0533 4.69355 23.44 5.98689 24.2L13.9069 28.7733C15.2002 29.52 16.8002 29.52 18.1069 28.7733L26.0269 24.2C27.3202 23.4533 28.1202 22.0666 28.1202 20.56V11.44C28.1069 9.93329 27.3069 8.55996 26.0136 7.79996ZM16.0002 9.78663C17.7202 9.78663 19.1069 11.1733 19.1069 12.8933C19.1069 14.6133 17.7202 16 16.0002 16C14.2802 16 12.8936 14.6133 12.8936 12.8933C12.8936 11.1866 14.2802 9.78663 16.0002 9.78663ZM19.5736 22.2133H12.4269C11.3469 22.2133 10.7202 21.0133 11.3202 20.12C12.2269 18.7733 13.9869 17.8666 16.0002 17.8666C18.0136 17.8666 19.7736 18.7733 20.6802 20.12C21.2802 21 20.6402 22.2133 19.5736 22.2133Z" fill="#3CBC44"/>
</svg>
