<svg width="32" height="32" viewBox="0 0 32 32" fill="none" xmlns="http://www.w3.org/2000/svg">
<path d="M28.1199 9.30665C26.9866 8.05332 25.0932 7.42665 22.3466 7.42665H22.0266V7.37332C22.0266 5.13332 22.0266 2.35999 17.0132 2.35999H14.9866C9.97322 2.35999 9.97322 5.14665 9.97322 7.37332V7.43999H9.65322C6.89322 7.43999 5.01322 8.06665 3.87989 9.31999C2.55989 10.7867 2.59989 12.76 2.73322 14.1067L2.74655 14.2L2.85734 15.3633C2.87161 15.513 2.95244 15.6484 3.0782 15.731C3.38519 15.9326 3.97584 16.3155 4.31989 16.5067C4.50655 16.6267 4.70655 16.7333 4.90655 16.84C7.18655 18.0933 9.69322 18.9333 12.2399 19.3467C12.3599 20.6 12.9066 22.0667 15.8266 22.0667C18.7466 22.0667 19.3199 20.6133 19.4132 19.32C22.1332 18.88 24.7599 17.9333 27.1332 16.5467C27.2132 16.5067 27.2666 16.4667 27.3332 16.4267C27.8831 16.1159 28.4543 15.7301 28.9702 15.3557C29.083 15.2739 29.1553 15.1479 29.1707 15.0094L29.1999 14.7467L29.2666 14.12C29.2799 14.04 29.2799 13.9733 29.2932 13.88C29.3999 12.5333 29.3732 10.6933 28.1199 9.30665ZM17.4532 18.44C17.4532 19.8533 17.4532 20.0667 15.8132 20.0667C14.1732 20.0667 14.1732 19.8133 14.1732 18.4533V16.7733H17.4532V18.44ZM11.8799 7.42665V7.37332C11.8799 5.10665 11.8799 4.26665 14.9866 4.26665H17.0132C20.1199 4.26665 20.1199 5.11999 20.1199 7.37332V7.43999H11.8799V7.42665Z" fill="#3366FF"/>
<path d="M28.1029 18.1825C28.4559 18.0131 28.8611 18.2939 28.8257 18.6839L28.3201 24.2534C28.0401 26.92 26.9468 29.64 21.0801 29.64H10.9201C5.05345 29.64 3.96012 26.92 3.68012 24.2667L3.19941 18.9789C3.16436 18.5934 3.56105 18.3132 3.91317 18.4739C5.37082 19.139 8.49371 20.5169 10.3226 20.978C10.4873 21.0195 10.6213 21.1372 10.6901 21.2924C11.4819 23.0765 13.2523 24.0267 15.8268 24.0267C18.3758 24.0267 20.1695 23.0399 20.9633 21.2526C21.0323 21.0973 21.1667 20.9795 21.3316 20.9379C23.2712 20.4474 26.584 18.9116 28.1029 18.1825Z" fill="#3366FF"/>
</svg>
